<svg width="32" height="33" viewBox="0 0 32 33" fill="none" xmlns="http://www.w3.org/2000/svg">
<g id="social">
<path id="Vector" d="M25.3333 4.62695C26.0406 4.62695 26.7189 4.9079 27.219 5.408C27.719 5.9081 28 6.58638 28 7.29362V25.9603C28 26.6675 27.719 27.3458 27.219 27.8459C26.7189 28.346 26.0406 28.627 25.3333 28.627H6.66667C5.95942 28.627 5.28115 28.346 4.78105 27.8459C4.28095 27.3458 4 26.6675 4 25.9603V7.29362C4 6.58638 4.28095 5.9081 4.78105 5.408C5.28115 4.9079 5.95942 4.62695 6.66667 4.62695H25.3333ZM24.6667 25.2936V18.227C24.6667 17.0741 24.2087 15.9686 23.3936 15.1534C22.5784 14.3382 21.4728 13.8803 20.32 13.8803C19.1867 13.8803 17.8667 14.5736 17.2267 15.6136V14.1336H13.5067V25.2936H17.2267V18.7203C17.2267 17.6936 18.0533 16.8536 19.08 16.8536C19.5751 16.8536 20.0499 17.0503 20.3999 17.4004C20.75 17.7504 20.9467 18.2252 20.9467 18.7203V25.2936H24.6667ZM9.17333 12.0403C9.76742 12.0403 10.3372 11.8043 10.7573 11.3842C11.1773 10.9641 11.4133 10.3944 11.4133 9.80029C11.4133 8.56029 10.4133 7.54695 9.17333 7.54695C8.57571 7.54695 8.00257 7.78436 7.57999 8.20694C7.1574 8.62952 6.92 9.20267 6.92 9.80029C6.92 11.0403 7.93333 12.0403 9.17333 12.0403ZM11.0267 25.2936V14.1336H7.33333V25.2936H11.0267Z" fill="#0A66C2"/>
</g>
</svg>
